<mxfile host="Electron" modified="2024-02-13T23:44:32.220Z" agent="Mozilla/5.0 (Windows NT 10.0; Win64; x64) AppleWebKit/537.36 (KHTML, like Gecko) draw.io/23.0.2 Chrome/120.0.6099.109 Electron/28.1.0 Safari/537.36" etag="o0ttg1nDTFSmObvTVdIH" version="23.0.2" type="device">
  <diagram id="prtHgNgQTEPvFCAcTncT" name="Page-1">
    <mxGraphModel dx="2823" dy="2600" grid="1" gridSize="10" guides="1" tooltips="1" connect="1" arrows="1" fold="1" page="1" pageScale="1" pageWidth="827" pageHeight="1169" math="0" shadow="0">
      <root>
        <mxCell id="0" />
        <mxCell id="1" parent="0" />
        <mxCell id="dNxyNK7c78bLwvsdeMH5-11" value="React" style="swimlane;html=1;startSize=20;horizontal=1;containerType=tree;glass=0;fillColor=#84eef5;gradientColor=none;swimlaneFillColor=#d1f6ff;" parent="1" vertex="1">
          <mxGeometry x="-450" y="-620" width="1520" height="1690" as="geometry" />
        </mxCell>
        <mxCell id="tttEFYYSB7BPzRPS_2Zu-8" value="App.jsx" style="swimlane;whiteSpace=wrap;html=1;strokeColor=#d6b656;swimlaneFillColor=default;fillColor=#fff2cc;" vertex="1" parent="dNxyNK7c78bLwvsdeMH5-11">
          <mxGeometry x="50" y="370" width="1370" height="60" as="geometry" />
        </mxCell>
        <mxCell id="tttEFYYSB7BPzRPS_2Zu-21" value="main.jsx" style="swimlane;whiteSpace=wrap;html=1;fillColor=#b0e3e6;strokeColor=#0e8088;" vertex="1" parent="dNxyNK7c78bLwvsdeMH5-11">
          <mxGeometry x="10" y="36" width="1510" height="1654" as="geometry" />
        </mxCell>
        <mxCell id="tttEFYYSB7BPzRPS_2Zu-17" value="ContainerStateContext.jsx" style="swimlane;whiteSpace=wrap;html=1;swimlaneFillColor=default;fillColor=#ffe6cc;strokeColor=#d79b00;" vertex="1" parent="tttEFYYSB7BPzRPS_2Zu-21">
          <mxGeometry x="1080" y="44" width="280" height="220" as="geometry" />
        </mxCell>
        <mxCell id="tttEFYYSB7BPzRPS_2Zu-103" value="Säilyttää tiedon siitä, kuuluuko komponentin olla näkyvissä vai ei (esim. ollaanko komponentti suljettu ruksilla)" style="text;html=1;strokeColor=none;fillColor=none;align=center;verticalAlign=middle;whiteSpace=wrap;rounded=0;" vertex="1" parent="tttEFYYSB7BPzRPS_2Zu-17">
          <mxGeometry x="20" y="30" width="220" height="160" as="geometry" />
        </mxCell>
        <mxCell id="tttEFYYSB7BPzRPS_2Zu-71" style="edgeStyle=orthogonalEdgeStyle;rounded=0;orthogonalLoop=1;jettySize=auto;html=1;" edge="1" parent="tttEFYYSB7BPzRPS_2Zu-21" source="tttEFYYSB7BPzRPS_2Zu-16">
          <mxGeometry relative="1" as="geometry">
            <mxPoint x="880" y="444.0000000000002" as="targetPoint" />
          </mxGeometry>
        </mxCell>
        <mxCell id="tttEFYYSB7BPzRPS_2Zu-16" value="PinContext.jsx" style="swimlane;whiteSpace=wrap;html=1;swimlaneFillColor=default;fillColor=#ffe6cc;strokeColor=#d79b00;" vertex="1" parent="tttEFYYSB7BPzRPS_2Zu-21">
          <mxGeometry x="740" y="44" width="280" height="220" as="geometry" />
        </mxCell>
        <mxCell id="tttEFYYSB7BPzRPS_2Zu-52" value="Tallentaa tiedon:&lt;br&gt;- karttaan asetetut pinnit (punainen/sininen)&lt;br&gt;- tietokannasta noudettu pinni&lt;br&gt;- maailman pääkaupunkipinnit&lt;br&gt;- maailman pääkaupunkipinnien väri&lt;br&gt;- valinta näytetäänkö maailman pääkaupunkipinnit" style="text;html=1;strokeColor=none;fillColor=none;align=center;verticalAlign=middle;whiteSpace=wrap;rounded=0;" vertex="1" parent="tttEFYYSB7BPzRPS_2Zu-16">
          <mxGeometry x="10" y="42.5" width="260" height="165" as="geometry" />
        </mxCell>
        <mxCell id="tttEFYYSB7BPzRPS_2Zu-15" value="ApiKeyContext.jsx" style="swimlane;whiteSpace=wrap;html=1;swimlaneFillColor=default;fillColor=#ffe6cc;strokeColor=#d79b00;" vertex="1" parent="tttEFYYSB7BPzRPS_2Zu-21">
          <mxGeometry x="400" y="44" width="260" height="220" as="geometry" />
        </mxCell>
        <mxCell id="tttEFYYSB7BPzRPS_2Zu-49" value="Säilytyspaikka Api avaimille, josta ne voidaan myös poimia" style="text;html=1;strokeColor=none;fillColor=none;align=center;verticalAlign=middle;whiteSpace=wrap;rounded=0;" vertex="1" parent="tttEFYYSB7BPzRPS_2Zu-15">
          <mxGeometry x="20" y="80" width="220" height="75" as="geometry" />
        </mxCell>
        <mxCell id="tttEFYYSB7BPzRPS_2Zu-32" value="WeatherInfo.jsx" style="swimlane;whiteSpace=wrap;html=1;fillColor=#d0cee2;strokeColor=#56517e;swimlaneFillColor=default;" vertex="1" parent="tttEFYYSB7BPzRPS_2Zu-21">
          <mxGeometry x="660" y="1294" width="260" height="220" as="geometry" />
        </mxCell>
        <mxCell id="tttEFYYSB7BPzRPS_2Zu-170" value="Etsii koordinaattien perusteella tämänhetkisen säätiedon ja palauttaa sen.&amp;nbsp;&amp;nbsp;" style="text;html=1;strokeColor=none;fillColor=none;align=center;verticalAlign=middle;whiteSpace=wrap;rounded=0;" vertex="1" parent="tttEFYYSB7BPzRPS_2Zu-32">
          <mxGeometry x="10" y="30" width="240" height="180" as="geometry" />
        </mxCell>
        <mxCell id="tttEFYYSB7BPzRPS_2Zu-31" value="Map.jsx" style="swimlane;whiteSpace=wrap;html=1;fillColor=#d0cee2;strokeColor=#56517e;swimlaneFillColor=default;" vertex="1" parent="tttEFYYSB7BPzRPS_2Zu-21">
          <mxGeometry x="330" y="1114" width="260" height="396" as="geometry" />
        </mxCell>
        <mxCell id="tttEFYYSB7BPzRPS_2Zu-162" value="Karttapohja joka täyttää melkein koko sivun.&lt;br&gt;&lt;br&gt;- Siirtää näkymän haetun maan kohdalle yleisien koordinaattien mukaan.&lt;br&gt;- Hoitaa pinnien asettamisen kartalle (pääkaupunki ja punainen merkkauspinni).&lt;br&gt;&lt;br&gt;- Mikäli kartalle on asetettu punainen pinni, tehdään Api kutsu TimeZoneDB:een, josta tuodaan paikallinen kellonaika.&lt;br&gt;&lt;br&gt;- Mikäli käyttäjä paikantaa itsensä, tehdään Api kutsu WeatherApi:lle, joka palauttaa säätiedot omalle sijainnille.&lt;br&gt;&lt;br&gt;Käsittelee pinnien värin.&lt;br&gt;&lt;br&gt;Piirtää näkymään ilmestyvät laatikot (kaikki muut paitsi CountryForm)" style="text;html=1;strokeColor=none;fillColor=none;align=center;verticalAlign=middle;whiteSpace=wrap;rounded=0;" vertex="1" parent="tttEFYYSB7BPzRPS_2Zu-31">
          <mxGeometry x="10" y="30" width="240" height="360" as="geometry" />
        </mxCell>
        <mxCell id="tttEFYYSB7BPzRPS_2Zu-30" value="GetGeoData.jsx" style="swimlane;whiteSpace=wrap;html=1;fillColor=#d0cee2;strokeColor=#56517e;swimlaneFillColor=default;" vertex="1" parent="tttEFYYSB7BPzRPS_2Zu-21">
          <mxGeometry x="40" y="1294" width="230" height="220" as="geometry" />
        </mxCell>
        <mxCell id="tttEFYYSB7BPzRPS_2Zu-167" value="Suorittaa &quot;reverse geokoodauksen&quot;, eli hakee paikkatietoa koordinaattien perusteella BigDataCloud Apista.&lt;br&gt;&lt;br&gt;Etsii myös RestCountries Apista kyseisen maan, jonka BigDataCloud antoi. Molempien apien tiedot yhdistetään &quot;Info laatikoihin&quot;.&lt;br&gt;&lt;br&gt;Vie koordinaatit myös WeatherInfo:lle, joka palauttaa säädatan. Tämä data sijoitetaan näkymään laatikkoon." style="text;html=1;strokeColor=none;fillColor=none;align=center;verticalAlign=middle;whiteSpace=wrap;rounded=0;" vertex="1" parent="tttEFYYSB7BPzRPS_2Zu-30">
          <mxGeometry x="10" y="30" width="210" height="180" as="geometry" />
        </mxCell>
        <mxCell id="tttEFYYSB7BPzRPS_2Zu-28" value="GetCountryCoordinates.jsx" style="swimlane;whiteSpace=wrap;html=1;fillColor=#d0cee2;strokeColor=#56517e;swimlaneFillColor=default;" vertex="1" parent="tttEFYYSB7BPzRPS_2Zu-21">
          <mxGeometry x="280" y="704" width="260" height="166" as="geometry" />
        </mxCell>
        <mxCell id="tttEFYYSB7BPzRPS_2Zu-160" value="Poimii valitusta maasta yleiset koordinaatit, sekä pääkaupungin koordinaatit." style="text;html=1;strokeColor=none;fillColor=none;align=center;verticalAlign=middle;whiteSpace=wrap;rounded=0;" vertex="1" parent="tttEFYYSB7BPzRPS_2Zu-28">
          <mxGeometry x="30" y="15" width="200" height="150" as="geometry" />
        </mxCell>
        <mxCell id="tttEFYYSB7BPzRPS_2Zu-11" value="Countries.jsx" style="swimlane;whiteSpace=wrap;html=1;fillColor=#d0cee2;strokeColor=#56517e;swimlaneFillColor=default;" vertex="1" parent="tttEFYYSB7BPzRPS_2Zu-21">
          <mxGeometry x="140" y="454" width="210" height="210" as="geometry" />
        </mxCell>
        <mxCell id="tttEFYYSB7BPzRPS_2Zu-45" value="Filteröi 250 maan datan hakukenttään syötetyn haun perusteella,&lt;br&gt;&lt;br&gt;Palauttaa valitun maan datan" style="text;html=1;strokeColor=none;fillColor=none;align=center;verticalAlign=middle;whiteSpace=wrap;rounded=0;" vertex="1" parent="tttEFYYSB7BPzRPS_2Zu-11">
          <mxGeometry x="30" y="68" width="140" height="106" as="geometry" />
        </mxCell>
        <mxCell id="tttEFYYSB7BPzRPS_2Zu-72" style="edgeStyle=orthogonalEdgeStyle;rounded=0;orthogonalLoop=1;jettySize=auto;html=1;entryX=0.5;entryY=1;entryDx=0;entryDy=0;" edge="1" parent="tttEFYYSB7BPzRPS_2Zu-21" source="tttEFYYSB7BPzRPS_2Zu-13" target="tttEFYYSB7BPzRPS_2Zu-16">
          <mxGeometry relative="1" as="geometry">
            <Array as="points">
              <mxPoint x="880" y="404" />
              <mxPoint x="880" y="404" />
            </Array>
          </mxGeometry>
        </mxCell>
        <mxCell id="tttEFYYSB7BPzRPS_2Zu-13" value="MoreMenu.jsx" style="swimlane;whiteSpace=wrap;html=1;fillColor=#d0cee2;strokeColor=#56517e;swimlaneFillColor=default;" vertex="1" parent="tttEFYYSB7BPzRPS_2Zu-21">
          <mxGeometry x="800" y="444" width="310" height="156" as="geometry" />
        </mxCell>
        <mxCell id="tttEFYYSB7BPzRPS_2Zu-59" value="Näkymä, josta valita näytetäänkö kartalla kaikki maailmanpääkaupungit ja minkä värisellä pinnillä. Valinnan voi myös ottaa pois päältä." style="text;html=1;strokeColor=none;fillColor=none;align=center;verticalAlign=middle;whiteSpace=wrap;rounded=0;" vertex="1" parent="tttEFYYSB7BPzRPS_2Zu-13">
          <mxGeometry x="40" y="51" width="230" height="78" as="geometry" />
        </mxCell>
        <mxCell id="tttEFYYSB7BPzRPS_2Zu-27" value="GetAllCapitals.jsx" style="swimlane;whiteSpace=wrap;html=1;fillColor=#d0cee2;strokeColor=#56517e;swimlaneFillColor=default;" vertex="1" parent="tttEFYYSB7BPzRPS_2Zu-21">
          <mxGeometry x="650" y="814" width="260" height="220" as="geometry" />
        </mxCell>
        <mxCell id="tttEFYYSB7BPzRPS_2Zu-77" value="Valikoi 250 maasta, ne 245 maata joilla on pääkaupunki.&lt;br&gt;&lt;br&gt;Tallentaa kontekstsiin tiedon:&lt;br&gt;- Pääkaupungin nimi&lt;br&gt;- Koordinaatit&lt;br&gt;- Pinnin väri&amp;nbsp;" style="text;html=1;strokeColor=none;fillColor=none;align=center;verticalAlign=middle;whiteSpace=wrap;rounded=0;" vertex="1" parent="tttEFYYSB7BPzRPS_2Zu-27">
          <mxGeometry x="10" y="40" width="240" height="170" as="geometry" />
        </mxCell>
        <mxCell id="tttEFYYSB7BPzRPS_2Zu-29" value="FavoritesMenu.jsx" style="swimlane;whiteSpace=wrap;html=1;fillColor=#d0cee2;strokeColor=#56517e;swimlaneFillColor=default;" vertex="1" parent="tttEFYYSB7BPzRPS_2Zu-21">
          <mxGeometry x="1133.5" y="444" width="260" height="220" as="geometry" />
        </mxCell>
        <mxCell id="tttEFYYSB7BPzRPS_2Zu-106" value="Näkymä, jossa voidaan tallentaa nimellä tietokantaan asetettu punainen pinni, tai haetun maan sininen pääkaupunkipinni.&lt;br&gt;&lt;br&gt;Näkymässä on myös myös &quot;noutaa&quot; pinnejä kartalle, muokata pinnien nimiä ja poistaa pinnejä tietokannasta.&lt;br&gt;&lt;br&gt;Noudettu pinni viedään PinContextiin." style="text;html=1;strokeColor=none;fillColor=none;align=center;verticalAlign=middle;whiteSpace=wrap;rounded=0;" vertex="1" parent="tttEFYYSB7BPzRPS_2Zu-29">
          <mxGeometry x="20" y="40" width="220" height="170" as="geometry" />
        </mxCell>
        <mxCell id="tttEFYYSB7BPzRPS_2Zu-19" value="PinService.jsx" style="swimlane;whiteSpace=wrap;html=1;swimlaneFillColor=default;fillColor=#d5e8d4;strokeColor=#82b366;" vertex="1" parent="tttEFYYSB7BPzRPS_2Zu-21">
          <mxGeometry x="1170" y="742" width="187" height="298" as="geometry" />
        </mxCell>
        <mxCell id="tttEFYYSB7BPzRPS_2Zu-109" value="CRUD operaatiot backendille" style="text;html=1;strokeColor=none;fillColor=none;align=center;verticalAlign=middle;whiteSpace=wrap;rounded=0;" vertex="1" parent="tttEFYYSB7BPzRPS_2Zu-19">
          <mxGeometry x="20" y="60" width="150" height="150" as="geometry" />
        </mxCell>
        <mxCell id="tttEFYYSB7BPzRPS_2Zu-12" value="SubmitApiKeys.jsx" style="swimlane;whiteSpace=wrap;html=1;fillColor=#d0cee2;strokeColor=#56517e;swimlaneFillColor=default;" vertex="1" parent="tttEFYYSB7BPzRPS_2Zu-21">
          <mxGeometry x="450" y="444" width="260" height="156" as="geometry" />
        </mxCell>
        <mxCell id="tttEFYYSB7BPzRPS_2Zu-51" value="Näkymä, jossa Api avainten syöttäminen / muokkaaminen" style="text;html=1;strokeColor=none;fillColor=none;align=center;verticalAlign=middle;whiteSpace=wrap;rounded=0;" vertex="1" parent="tttEFYYSB7BPzRPS_2Zu-12">
          <mxGeometry x="15" y="40" width="230" height="78" as="geometry" />
        </mxCell>
        <mxCell id="tttEFYYSB7BPzRPS_2Zu-33" value="CountryForm.jsx" style="swimlane;whiteSpace=wrap;html=1;fillColor=#d0cee2;strokeColor=#56517e;swimlaneFillColor=default;" vertex="1" parent="tttEFYYSB7BPzRPS_2Zu-21">
          <mxGeometry x="50" y="1034" width="160" height="220" as="geometry" />
        </mxCell>
        <mxCell id="tttEFYYSB7BPzRPS_2Zu-42" value="Näyttää valitun maan datan sinireunaisessa laatikossa" style="text;html=1;strokeColor=none;fillColor=none;align=center;verticalAlign=middle;whiteSpace=wrap;rounded=0;" vertex="1" parent="tttEFYYSB7BPzRPS_2Zu-33">
          <mxGeometry x="10" y="32" width="140" height="170" as="geometry" />
        </mxCell>
        <mxCell id="tttEFYYSB7BPzRPS_2Zu-102" value="" style="endArrow=classic;html=1;rounded=0;exitX=0.5;exitY=1;exitDx=0;exitDy=0;entryX=1;entryY=0.5;entryDx=0;entryDy=0;" edge="1" parent="tttEFYYSB7BPzRPS_2Zu-21" source="tttEFYYSB7BPzRPS_2Zu-13" target="tttEFYYSB7BPzRPS_2Zu-27">
          <mxGeometry width="50" height="50" relative="1" as="geometry">
            <mxPoint x="810" y="664" as="sourcePoint" />
            <mxPoint x="860" y="614" as="targetPoint" />
            <Array as="points">
              <mxPoint x="950" y="924" />
            </Array>
          </mxGeometry>
        </mxCell>
        <mxCell id="tttEFYYSB7BPzRPS_2Zu-107" value="" style="endArrow=classic;html=1;rounded=0;exitX=0.5;exitY=1;exitDx=0;exitDy=0;entryX=0.5;entryY=0;entryDx=0;entryDy=0;" edge="1" parent="tttEFYYSB7BPzRPS_2Zu-21" source="tttEFYYSB7BPzRPS_2Zu-29" target="tttEFYYSB7BPzRPS_2Zu-19">
          <mxGeometry width="50" height="50" relative="1" as="geometry">
            <mxPoint x="1250" y="864" as="sourcePoint" />
            <mxPoint x="1300" y="814" as="targetPoint" />
          </mxGeometry>
        </mxCell>
        <mxCell id="tttEFYYSB7BPzRPS_2Zu-114" value="" style="endArrow=classic;html=1;rounded=0;exitX=0.75;exitY=0;exitDx=0;exitDy=0;" edge="1" parent="tttEFYYSB7BPzRPS_2Zu-21" source="tttEFYYSB7BPzRPS_2Zu-19">
          <mxGeometry width="50" height="50" relative="1" as="geometry">
            <mxPoint x="1290" y="754" as="sourcePoint" />
            <mxPoint x="1310" y="664" as="targetPoint" />
          </mxGeometry>
        </mxCell>
        <mxCell id="tttEFYYSB7BPzRPS_2Zu-115" value="" style="endArrow=classic;html=1;rounded=0;exitX=0.25;exitY=0;exitDx=0;exitDy=0;entryX=1;entryY=1;entryDx=0;entryDy=0;" edge="1" parent="tttEFYYSB7BPzRPS_2Zu-21" source="tttEFYYSB7BPzRPS_2Zu-29" target="tttEFYYSB7BPzRPS_2Zu-16">
          <mxGeometry width="50" height="50" relative="1" as="geometry">
            <mxPoint x="1040" y="514" as="sourcePoint" />
            <mxPoint x="1090" y="464" as="targetPoint" />
          </mxGeometry>
        </mxCell>
        <mxCell id="tttEFYYSB7BPzRPS_2Zu-116" value="" style="endArrow=classic;html=1;rounded=0;exitX=0.5;exitY=0;exitDx=0;exitDy=0;" edge="1" parent="tttEFYYSB7BPzRPS_2Zu-21" source="tttEFYYSB7BPzRPS_2Zu-11">
          <mxGeometry width="50" height="50" relative="1" as="geometry">
            <mxPoint x="250" y="414" as="sourcePoint" />
            <mxPoint x="245" y="394" as="targetPoint" />
          </mxGeometry>
        </mxCell>
        <mxCell id="tttEFYYSB7BPzRPS_2Zu-158" value="" style="endArrow=classic;html=1;rounded=0;entryX=0.5;entryY=0;entryDx=0;entryDy=0;" edge="1" parent="tttEFYYSB7BPzRPS_2Zu-21" target="tttEFYYSB7BPzRPS_2Zu-11">
          <mxGeometry width="50" height="50" relative="1" as="geometry">
            <mxPoint x="245" y="394" as="sourcePoint" />
            <mxPoint x="380" y="384" as="targetPoint" />
          </mxGeometry>
        </mxCell>
        <mxCell id="tttEFYYSB7BPzRPS_2Zu-161" value="" style="endArrow=classic;html=1;rounded=0;exitX=0.75;exitY=1;exitDx=0;exitDy=0;entryX=0.5;entryY=0;entryDx=0;entryDy=0;" edge="1" parent="tttEFYYSB7BPzRPS_2Zu-21" source="tttEFYYSB7BPzRPS_2Zu-160" target="tttEFYYSB7BPzRPS_2Zu-31">
          <mxGeometry width="50" height="50" relative="1" as="geometry">
            <mxPoint x="440" y="1134" as="sourcePoint" />
            <mxPoint x="490" y="1084" as="targetPoint" />
          </mxGeometry>
        </mxCell>
        <mxCell id="tttEFYYSB7BPzRPS_2Zu-164" value="" style="endArrow=classic;html=1;rounded=0;" edge="1" parent="tttEFYYSB7BPzRPS_2Zu-21">
          <mxGeometry width="50" height="50" relative="1" as="geometry">
            <mxPoint x="590" y="1374" as="sourcePoint" />
            <mxPoint x="660" y="1374" as="targetPoint" />
          </mxGeometry>
        </mxCell>
        <mxCell id="tttEFYYSB7BPzRPS_2Zu-166" value="" style="endArrow=classic;html=1;rounded=0;" edge="1" parent="tttEFYYSB7BPzRPS_2Zu-21">
          <mxGeometry width="50" height="50" relative="1" as="geometry">
            <mxPoint x="330" y="1374" as="sourcePoint" />
            <mxPoint x="270" y="1374" as="targetPoint" />
          </mxGeometry>
        </mxCell>
        <mxCell id="tttEFYYSB7BPzRPS_2Zu-171" value="" style="endArrow=classic;startArrow=classic;html=1;rounded=0;exitX=0.5;exitY=1;exitDx=0;exitDy=0;entryX=0.5;entryY=1;entryDx=0;entryDy=0;" edge="1" parent="tttEFYYSB7BPzRPS_2Zu-21" source="tttEFYYSB7BPzRPS_2Zu-30" target="tttEFYYSB7BPzRPS_2Zu-32">
          <mxGeometry width="50" height="50" relative="1" as="geometry">
            <mxPoint x="460" y="1594" as="sourcePoint" />
            <mxPoint x="510" y="1544" as="targetPoint" />
            <Array as="points">
              <mxPoint x="155" y="1554" />
              <mxPoint x="790" y="1554" />
            </Array>
          </mxGeometry>
        </mxCell>
        <mxCell id="tttEFYYSB7BPzRPS_2Zu-172" value="" style="ellipse;whiteSpace=wrap;html=1;fillColor=none;strokeColor=#000066;shadow=0;strokeWidth=3;opacity=30;dashed=1;" vertex="1" parent="tttEFYYSB7BPzRPS_2Zu-21">
          <mxGeometry x="-130" y="947" width="1130" height="730" as="geometry" />
        </mxCell>
        <mxCell id="tttEFYYSB7BPzRPS_2Zu-174" value="" style="ellipse;whiteSpace=wrap;html=1;fillColor=none;strokeColor=#000066;shadow=1;strokeWidth=3;opacity=20;dashed=1;" vertex="1" parent="tttEFYYSB7BPzRPS_2Zu-21">
          <mxGeometry x="390" y="374" width="1130" height="309" as="geometry" />
        </mxCell>
        <mxCell id="tttEFYYSB7BPzRPS_2Zu-175" value="&lt;font style=&quot;font-size: 20px;&quot;&gt;Päänäkymä&lt;/font&gt;" style="text;html=1;strokeColor=none;fillColor=none;align=center;verticalAlign=middle;whiteSpace=wrap;rounded=0;" vertex="1" parent="tttEFYYSB7BPzRPS_2Zu-21">
          <mxGeometry x="960" y="1144" width="140" height="84" as="geometry" />
        </mxCell>
        <mxCell id="tttEFYYSB7BPzRPS_2Zu-176" value="&lt;font style=&quot;font-size: 20px;&quot;&gt;Navigointirivi&lt;/font&gt;" style="text;html=1;strokeColor=none;fillColor=none;align=center;verticalAlign=middle;whiteSpace=wrap;rounded=0;" vertex="1" parent="tttEFYYSB7BPzRPS_2Zu-21">
          <mxGeometry x="1370" y="374" width="140" height="84" as="geometry" />
        </mxCell>
        <mxCell id="tttEFYYSB7BPzRPS_2Zu-82" style="edgeStyle=orthogonalEdgeStyle;rounded=0;orthogonalLoop=1;jettySize=auto;html=1;entryX=0.5;entryY=0;entryDx=0;entryDy=0;" edge="1" parent="dNxyNK7c78bLwvsdeMH5-11" target="tttEFYYSB7BPzRPS_2Zu-33">
          <mxGeometry relative="1" as="geometry">
            <mxPoint x="140" y="430" as="sourcePoint" />
            <Array as="points">
              <mxPoint x="140" y="440" />
              <mxPoint x="140" y="440" />
            </Array>
          </mxGeometry>
        </mxCell>
        <mxCell id="tttEFYYSB7BPzRPS_2Zu-105" value="" style="endArrow=classic;html=1;rounded=0;entryX=0.861;entryY=-0.017;entryDx=0;entryDy=0;entryPerimeter=0;" edge="1" parent="dNxyNK7c78bLwvsdeMH5-11" target="tttEFYYSB7BPzRPS_2Zu-8">
          <mxGeometry width="50" height="50" relative="1" as="geometry">
            <mxPoint x="1230" y="310" as="sourcePoint" />
            <mxPoint x="1310" y="320" as="targetPoint" />
          </mxGeometry>
        </mxCell>
        <mxCell id="tttEFYYSB7BPzRPS_2Zu-159" value="" style="endArrow=classic;html=1;rounded=0;exitX=0.25;exitY=1;exitDx=0;exitDy=0;entryX=0.389;entryY=0.001;entryDx=0;entryDy=0;entryPerimeter=0;" edge="1" parent="dNxyNK7c78bLwvsdeMH5-11" source="tttEFYYSB7BPzRPS_2Zu-8" target="tttEFYYSB7BPzRPS_2Zu-28">
          <mxGeometry width="50" height="50" relative="1" as="geometry">
            <mxPoint x="550" y="750" as="sourcePoint" />
            <mxPoint x="600" y="700" as="targetPoint" />
          </mxGeometry>
        </mxCell>
        <mxCell id="tttEFYYSB7BPzRPS_2Zu-5" value="Node.js" style="swimlane;html=1;startSize=20;horizontal=1;containerType=tree;glass=0;fillColor=#82F023;strokeColor=#2D7600;fontColor=#ffffff;swimlaneFillColor=default;" vertex="1" parent="1">
          <mxGeometry x="1110" y="27" width="300" height="560" as="geometry" />
        </mxCell>
        <mxCell id="tttEFYYSB7BPzRPS_2Zu-177" value="Endpointit&lt;br&gt;&lt;br&gt;Mongoose&lt;br&gt;&lt;br&gt;MongoDB:n salasana komentoriviparametrina" style="text;html=1;strokeColor=none;fillColor=none;align=center;verticalAlign=middle;whiteSpace=wrap;rounded=0;" vertex="1" parent="tttEFYYSB7BPzRPS_2Zu-5">
          <mxGeometry x="20" y="50" width="260" height="490" as="geometry" />
        </mxCell>
        <mxCell id="tttEFYYSB7BPzRPS_2Zu-6" value="MongoDB Atlas" style="swimlane;html=1;startSize=20;horizontal=1;containerType=tree;glass=0;fillColor=#008a00;fontColor=#ffffff;strokeColor=#005700;swimlaneFillColor=default;" vertex="1" parent="1">
          <mxGeometry x="1560" y="24.5" width="280" height="565" as="geometry" />
        </mxCell>
        <mxCell id="tttEFYYSB7BPzRPS_2Zu-178" value="Pilvessä pyörivä NoSQL tietokanta&lt;br&gt;&lt;br&gt;- Tänne tallennetaan ja täältä tuodaan dataa tallennetuista pinneistä." style="text;html=1;strokeColor=none;fillColor=none;align=center;verticalAlign=middle;whiteSpace=wrap;rounded=0;" vertex="1" parent="tttEFYYSB7BPzRPS_2Zu-6">
          <mxGeometry x="10" y="40" width="260" height="510" as="geometry" />
        </mxCell>
        <mxCell id="tttEFYYSB7BPzRPS_2Zu-76" style="edgeStyle=orthogonalEdgeStyle;rounded=0;orthogonalLoop=1;jettySize=auto;html=1;entryX=0;entryY=0.5;entryDx=0;entryDy=0;" edge="1" parent="1" source="tttEFYYSB7BPzRPS_2Zu-14" target="tttEFYYSB7BPzRPS_2Zu-27">
          <mxGeometry relative="1" as="geometry">
            <Array as="points">
              <mxPoint x="-410" y="-430" />
              <mxPoint x="-410" y="340" />
            </Array>
          </mxGeometry>
        </mxCell>
        <mxCell id="tttEFYYSB7BPzRPS_2Zu-80" style="edgeStyle=orthogonalEdgeStyle;rounded=0;orthogonalLoop=1;jettySize=auto;html=1;" edge="1" parent="1" source="tttEFYYSB7BPzRPS_2Zu-14">
          <mxGeometry relative="1" as="geometry">
            <mxPoint x="-240" y="-250" as="targetPoint" />
            <Array as="points">
              <mxPoint x="-240" y="-280" />
              <mxPoint x="-240" y="-280" />
            </Array>
          </mxGeometry>
        </mxCell>
        <mxCell id="tttEFYYSB7BPzRPS_2Zu-14" value="CountryDataContext.jsx" style="swimlane;whiteSpace=wrap;html=1;swimlaneFillColor=default;fillColor=#ffe6cc;strokeColor=#d79b00;" vertex="1" parent="1">
          <mxGeometry x="-370" y="-540" width="260" height="220" as="geometry" />
        </mxCell>
        <mxCell id="tttEFYYSB7BPzRPS_2Zu-47" value="Hakee 250 Maata tietoineen&lt;br&gt;RestCountries Apista" style="text;html=1;strokeColor=none;fillColor=none;align=center;verticalAlign=middle;whiteSpace=wrap;rounded=0;" vertex="1" parent="tttEFYYSB7BPzRPS_2Zu-14">
          <mxGeometry x="55" y="80" width="150" height="90" as="geometry" />
        </mxCell>
        <mxCell id="tttEFYYSB7BPzRPS_2Zu-95" value="" style="endArrow=classic;html=1;rounded=0;entryX=0.25;entryY=0;entryDx=0;entryDy=0;" edge="1" parent="1" target="tttEFYYSB7BPzRPS_2Zu-12">
          <mxGeometry width="50" height="50" relative="1" as="geometry">
            <mxPoint x="75" y="-320" as="sourcePoint" />
            <mxPoint x="190" y="-240" as="targetPoint" />
          </mxGeometry>
        </mxCell>
        <mxCell id="tttEFYYSB7BPzRPS_2Zu-97" value="" style="endArrow=classic;html=1;rounded=0;entryX=0.5;entryY=0;entryDx=0;entryDy=0;" edge="1" parent="1" target="tttEFYYSB7BPzRPS_2Zu-12">
          <mxGeometry width="50" height="50" relative="1" as="geometry">
            <mxPoint x="140" y="-190" as="sourcePoint" />
            <mxPoint x="160" y="-180" as="targetPoint" />
          </mxGeometry>
        </mxCell>
        <mxCell id="tttEFYYSB7BPzRPS_2Zu-98" value="" style="endArrow=classic;html=1;rounded=0;exitX=0.25;exitY=0;exitDx=0;exitDy=0;" edge="1" parent="1" source="tttEFYYSB7BPzRPS_2Zu-12">
          <mxGeometry width="50" height="50" relative="1" as="geometry">
            <mxPoint x="80" y="-230" as="sourcePoint" />
            <mxPoint x="75" y="-320" as="targetPoint" />
          </mxGeometry>
        </mxCell>
        <mxCell id="tttEFYYSB7BPzRPS_2Zu-99" value="" style="endArrow=classic;html=1;rounded=0;exitX=0.5;exitY=0;exitDx=0;exitDy=0;" edge="1" parent="1" source="tttEFYYSB7BPzRPS_2Zu-27">
          <mxGeometry width="50" height="50" relative="1" as="geometry">
            <mxPoint x="270" y="-120" as="sourcePoint" />
            <mxPoint x="340" y="-320" as="targetPoint" />
          </mxGeometry>
        </mxCell>
        <mxCell id="tttEFYYSB7BPzRPS_2Zu-100" value="" style="endArrow=classic;html=1;rounded=0;entryX=0.5;entryY=0;entryDx=0;entryDy=0;" edge="1" parent="1" target="tttEFYYSB7BPzRPS_2Zu-13">
          <mxGeometry width="50" height="50" relative="1" as="geometry">
            <mxPoint x="515" y="-190" as="sourcePoint" />
            <mxPoint x="390" y="-140" as="targetPoint" />
          </mxGeometry>
        </mxCell>
        <mxCell id="tttEFYYSB7BPzRPS_2Zu-104" value="" style="endArrow=classic;html=1;rounded=0;" edge="1" parent="1">
          <mxGeometry width="50" height="50" relative="1" as="geometry">
            <mxPoint x="780" y="-250" as="sourcePoint" />
            <mxPoint x="780" y="-320" as="targetPoint" />
            <Array as="points">
              <mxPoint x="780" y="-250" />
            </Array>
          </mxGeometry>
        </mxCell>
        <mxCell id="tttEFYYSB7BPzRPS_2Zu-110" value="" style="endArrow=classic;html=1;rounded=0;exitX=1;exitY=0.5;exitDx=0;exitDy=0;entryX=0;entryY=0.5;entryDx=0;entryDy=0;" edge="1" parent="1" source="tttEFYYSB7BPzRPS_2Zu-19" target="tttEFYYSB7BPzRPS_2Zu-5">
          <mxGeometry width="50" height="50" relative="1" as="geometry">
            <mxPoint x="1020" y="300" as="sourcePoint" />
            <mxPoint x="1070" y="250" as="targetPoint" />
          </mxGeometry>
        </mxCell>
        <mxCell id="tttEFYYSB7BPzRPS_2Zu-111" value="" style="endArrow=classic;html=1;rounded=0;exitX=1;exitY=0.5;exitDx=0;exitDy=0;entryX=0;entryY=0.5;entryDx=0;entryDy=0;" edge="1" parent="1" source="tttEFYYSB7BPzRPS_2Zu-5" target="tttEFYYSB7BPzRPS_2Zu-6">
          <mxGeometry width="50" height="50" relative="1" as="geometry">
            <mxPoint x="1460" y="350" as="sourcePoint" />
            <mxPoint x="1510" y="300" as="targetPoint" />
          </mxGeometry>
        </mxCell>
        <mxCell id="tttEFYYSB7BPzRPS_2Zu-112" value="" style="endArrow=classic;html=1;rounded=0;" edge="1" parent="1">
          <mxGeometry width="50" height="50" relative="1" as="geometry">
            <mxPoint x="1560" y="280" as="sourcePoint" />
            <mxPoint x="1410" y="280" as="targetPoint" />
          </mxGeometry>
        </mxCell>
        <mxCell id="tttEFYYSB7BPzRPS_2Zu-113" value="" style="endArrow=classic;html=1;rounded=0;" edge="1" parent="1">
          <mxGeometry width="50" height="50" relative="1" as="geometry">
            <mxPoint x="1110" y="280" as="sourcePoint" />
            <mxPoint x="920" y="280" as="targetPoint" />
          </mxGeometry>
        </mxCell>
        <mxCell id="tttEFYYSB7BPzRPS_2Zu-163" value="" style="endArrow=classic;html=1;rounded=0;" edge="1" parent="1">
          <mxGeometry width="50" height="50" relative="1" as="geometry">
            <mxPoint x="220" y="790" as="sourcePoint" />
            <mxPoint x="150" y="790" as="targetPoint" />
          </mxGeometry>
        </mxCell>
        <mxCell id="tttEFYYSB7BPzRPS_2Zu-168" value="" style="endArrow=classic;html=1;rounded=0;exitX=0;exitY=0.25;exitDx=0;exitDy=0;entryX=0;entryY=0.5;entryDx=0;entryDy=0;" edge="1" parent="1" source="tttEFYYSB7BPzRPS_2Zu-14" target="tttEFYYSB7BPzRPS_2Zu-30">
          <mxGeometry width="50" height="50" relative="1" as="geometry">
            <mxPoint x="-380" y="100" as="sourcePoint" />
            <mxPoint x="-410" y="420" as="targetPoint" />
            <Array as="points">
              <mxPoint x="-430" y="-485" />
              <mxPoint x="-430" y="820" />
            </Array>
          </mxGeometry>
        </mxCell>
      </root>
    </mxGraphModel>
  </diagram>
</mxfile>
